<svg xmlns="http://www.w3.org/2000/svg" viewBox="0 0 262 279"><defs><style>.cls-1{fill:#66a492;}.cls-2{fill:#79c2ad;}.cls-3{fill:#fff;}.cls-4{fill:#be1622;}.cls-5{fill:#3c3c3b;}.cls-6{fill:#009da5;}</style></defs><g id="Layer_1" data-name="Layer 1"><rect class="cls-1" y="17" width="262" height="262" rx="37"/><rect class="cls-2" width="262" height="262" rx="37"/><path class="cls-3" d="M42.14,93.63S90.3,109.07,90.3,168.34c0,0-15.44,3.08-48.78-6.79C41.52,161.55,25.47,139.94,42.14,93.63Z"/><path class="cls-4" d="M55.39,100.32a91.54,91.54,0,0,0-3.59,64c26.24,6.45,38.5,4,38.5,4C90.3,129.53,69.65,109.51,55.39,100.32Z"/><ellipse class="cls-3" cx="67.72" cy="140.55" rx="5.29" ry="13.58"/><path class="cls-5" d="M86.28,111.84a.3.3,0,0,1-.3-.27C84.77,99.49,72,89,71.89,88.93a.31.31,0,0,1,0-.43.33.33,0,0,1,.44,0c.13.11,13.08,10.72,14.31,23.06a.3.3,0,0,1-.28.33Z"/><path class="cls-3" d="M219.86,93.63s-48.16,15.44-48.16,74.71c0,0,15.44,3.08,48.78-6.79C220.48,161.55,236.53,139.94,219.86,93.63Z"/><path class="cls-4" d="M206.61,100.32a91.54,91.54,0,0,1,3.59,64c-26.24,6.45-38.5,4-38.5,4C171.7,129.53,192.35,109.51,206.61,100.32Z"/><path class="cls-3" d="M189,140.55c0,7.51,2.37,13.59,5.29,13.59s5.29-6.08,5.29-13.59S197.2,127,194.28,127,189,133.05,189,140.55Z"/><path class="cls-5" d="M175.72,111.84a.3.3,0,0,0,.3-.27c1.21-12.08,14-22.53,14.09-22.64a.31.31,0,0,0,0-.43.33.33,0,0,0-.44,0c-.13.11-13.08,10.72-14.31,23.06a.3.3,0,0,0,.28.33Z"/><path class="cls-5" d="M131,224.05c-2.5,0-6.12-2.64-10-5.43-3.54-2.58-7.2-5.24-9.37-5.24H42a.5.5,0,0,1-.5-.5.5.5,0,0,1,.5-.5h69.67c2.49,0,6.12,2.64,10,5.43,3.54,2.57,7.2,5.24,9.37,5.24s5.83-2.67,9.37-5.24c3.84-2.79,7.47-5.43,10-5.43H225a.5.5,0,0,1,.5.5.5.5,0,0,1-.5.5H150.33c-2.17,0-5.83,2.66-9.37,5.24C137.12,221.41,133.5,224.05,131,224.05Z"/><path class="cls-5" d="M119,207.44s-8.12-1.8-5.49-4.48S119,207.44,119,207.44Z"/><path class="cls-5" d="M143,207.44s8.12-1.8,5.49-4.48S143,207.44,143,207.44Z"/><path class="cls-6" d="M161.34,21.88c-4.75-2.52-6.7-6-12.35,0s-15.66,15.33-18,19.33,17.67,20.67,21,22,13.34-24,14-30.66S167.64,25.22,161.34,21.88Z"/><path class="cls-6" d="M113,53.88a49.14,49.14,0,0,0-10.17,9.38c-2,2.62,6.34,6.4,10.17,9.26s10.83-6.37,10.33-9.26S115.2,52.4,113,53.88Z"/><path class="cls-6" d="M143,76.38c-4.64-2-9.14,8.5-6.14,10s8.8-1.25,9.15-5.13A4.5,4.5,0,0,0,143,76.38Z"/></g></svg>