<svg xmlns="http://www.w3.org/2000/svg" viewBox="0 0 262 279"><defs><style>.cls-1{fill:#cc7e35;}.cls-2{fill:#f3933f;}.cls-3{fill:#fff;}.cls-4{fill:#343333;}.cls-5{fill:#242468;}.cls-6{fill:#634e42;}.cls-7{fill:#f3a8ca;}.cls-8{fill:#3c3c3b;}</style></defs><g id="Layer_1" data-name="Layer 1"><path class="cls-1" d="M225,17H37A37.11,37.11,0,0,0,0,54V242c0,20.35,16.65,37.68,37,37.68H225c20.35,0,37-17.33,37-37.68V54A37.11,37.11,0,0,0,225,17Z"/><rect class="cls-2" width="262" height="262" rx="37"/><path class="cls-3" d="M64.21,60.74c-21.92-1.91-27,48-27,74,0,0,8,15,40,18C77.21,152.74,87.21,62.74,64.21,60.74Z"/><path class="cls-4" d="M46.88,126.75A103.66,103.66,0,0,0,48.4,144.6c6.16,3.49,15.36,6.88,28.81,8.14,0,0,6.08-54.68-2.14-79.75-.39,0-.79-.06-1.19-.06C59,72.93,46.88,97,46.88,126.75Z"/><ellipse class="cls-3" cx="67.91" cy="98.6" rx="8.11" ry="15.01"/><path class="cls-5" d="M73.54,122.57c-.66-5.88-1.66-1.11-8.33.36s-10-8.82-12,0c-1.59,7,2.56,20.3,4.33,25.45a70.67,70.67,0,0,0,11.23,3.2C71.31,146.31,74.14,127.83,73.54,122.57Z"/><path class="cls-3" d="M197.79,60.74c21.92-1.91,27,48,27,74,0,0-8,15-40,18C184.79,152.74,174.79,62.74,197.79,60.74Z"/><path class="cls-4" d="M215.12,126.75a103.66,103.66,0,0,1-1.52,17.85c-6.16,3.49-15.36,6.88-28.81,8.14,0,0-6.08-54.68,2.14-79.75.39,0,.79-.06,1.19-.06C203,72.93,215.12,97,215.12,126.75Z"/><ellipse class="cls-3" cx="194.09" cy="98.6" rx="8.11" ry="15.01"/><path class="cls-5" d="M188.46,122.57c.66-5.88,1.66-1.11,8.33.36s10-8.82,12,0c1.59,7-2.56,20.3-4.33,25.45a70.67,70.67,0,0,1-11.23,3.2C190.69,146.31,187.86,127.83,188.46,122.57Z"/><path class="cls-6" d="M231.49,179.36s-90.57,20-100.49,20-100.49-20-100.49-20c-10.15-2.22,18,16.67,50.24,38S131,236,131,236s18,2.67,50.25-18.67S241.64,177.14,231.49,179.36Z"/><path class="cls-7" d="M61.92,186.17a46.62,46.62,0,0,0-13.32,9.6c9,6.25,20.33,13.76,32.15,21.59C113,238.7,131,236,131,236s18,2.67,50.25-18.67c11.82-7.83,23.1-15.34,32.15-21.59a46.62,46.62,0,0,0-13.32-9.6C172.9,192,137,199.36,131,199.36S89.1,192,61.92,186.17Z"/><path class="cls-7" d="M61.92,186.17a46.62,46.62,0,0,0-13.32,9.6c9,6.25,20.33,13.76,32.15,21.59C113,238.7,131,236,131,236s18,2.67,50.25-18.67c11.82-7.83,23.1-15.34,32.15-21.59a46.62,46.62,0,0,0-13.32-9.6C172.9,192,137,199.36,131,199.36S89.1,192,61.92,186.17Z"/><path class="cls-7" d="M61.92,186.17a46.62,46.62,0,0,0-13.32,9.6c9,6.25,20.33,13.76,32.15,21.59C113,238.7,131,236,131,236s18,2.67,50.25-18.67c11.82-7.83,23.1-15.34,32.15-21.59a46.62,46.62,0,0,0-13.32-9.6C172.9,192,137,199.36,131,199.36S89.1,192,61.92,186.17Z"/><path class="cls-3" d="M63.46,186.49c1.49,4.52,4.23,11.94,6.09,11.94,1.55,0,3.72-5.19,5.26-9.53C70.94,188.08,67.13,187.28,63.46,186.49Z"/><path class="cls-3" d="M195.6,187.12l-10.95,2.31c1.53,4.22,3.58,9,5.07,9C191.49,198.43,194.07,191.66,195.6,187.12Z"/><path class="cls-3" d="M77.8,215.4l3,2c2.57,1.7,5,3.23,7.41,4.63-1.47-5.24-4.3-14.33-6.19-14.33C80.76,207.66,79.17,211.36,77.8,215.4Z"/><path class="cls-3" d="M181.25,217.36l3.35-2.22c-1.36-3.94-2.9-7.48-4.08-7.48-1.86,0-4.6,8.7-6.09,14C176.63,220.34,178.89,218.92,181.25,217.36Z"/><path class="cls-8" d="M76.41,52.76a.51.51,0,0,1-.42-.23C73,48,69.2,45.22,64.85,44.44,57.37,43.08,50.56,48,50.49,48a.49.49,0,0,1-.7-.11.5.5,0,0,1,.11-.69C50.19,47,57.12,42,65,43.45c4.63.84,8.6,3.71,11.8,8.53a.49.49,0,0,1-.14.69A.46.46,0,0,1,76.41,52.76Z"/><path class="cls-8" d="M185.59,52.76a.51.51,0,0,0,.42-.23c3-4.58,6.79-7.31,11.14-8.09,7.48-1.36,14.29,3.51,14.36,3.55a.49.49,0,0,0,.7-.11.5.5,0,0,0-.11-.69C211.81,47,204.88,42,197,43.45c-4.63.84-8.6,3.71-11.8,8.53a.49.49,0,0,0,.14.69A.46.46,0,0,0,185.59,52.76Z"/><path class="cls-8" d="M103.48,180.61s-4.25-1.1-4.88-1.43,2-3.44,3.13-2.44S104.36,180.85,103.48,180.61Z"/><path class="cls-8" d="M158.52,180.61s4.25-1.1,4.88-1.43-2-3.44-3.13-2.44S157.64,180.85,158.52,180.61Z"/></g></svg>