<svg xmlns="http://www.w3.org/2000/svg" viewBox="0 0 262 279"><defs><style>.cls-1{fill:#be8a51;}.cls-2{fill:#cb9356;}.cls-3{fill:#3c3c3b;}.cls-4{fill:#7a5a33;}.cls-5{fill:#fff;}.cls-6{fill:#ecca8b;}</style></defs><g id="Layer_1" data-name="Layer 1"><path class="cls-1" d="M261.48,47.88h0a36.89,36.89,0,0,0-2.16-7.63l0-.06c-.18-.46-.37-.91-.58-1.35l-.06-.15c-.2-.44-.41-.87-.63-1.3l-.07-.13a36.77,36.77,0,0,0-5.21-7.65l0,0c-.32-.36-.65-.72-1-1.07l-.1-.11c-.33-.35-.67-.68-1-1l-.1-.09c-.36-.34-.72-.68-1.09-1h0A37.3,37.3,0,0,0,241.71,21l-.06,0c-.45-.23-.9-.45-1.36-.66l-.07,0a36.61,36.61,0,0,0-10.69-3h0c-.53-.07-1.06-.12-1.59-.16h-.08c-.53,0-1.07-.07-1.61-.09h0c-.41,0-.82,0-1.23,0H37c-.41,0-.82,0-1.23,0h0c-.54,0-1.08,0-1.61.09h-.08c-.53,0-1.06.09-1.59.16h0a36.61,36.61,0,0,0-10.69,3l-.07,0c-.46.21-.91.43-1.36.66l-.06,0a37.3,37.3,0,0,0-7.71,5.24h0c-.37.32-.73.66-1.09,1l-.1.09c-.35.34-.69.67-1,1a.94.94,0,0,1-.1.1q-.51.54-1,1.08l0,0a36.77,36.77,0,0,0-5.21,7.65.83.83,0,0,0-.07.13c-.22.43-.43.86-.63,1.3l-.06.15c-.21.44-.4.89-.58,1.34l0,.07A36.89,36.89,0,0,0,.52,47.87h0A36.28,36.28,0,0,0,0,54V242a36.5,36.5,0,0,0,1.66,10.92h0c0,.14.09.26.13.39.13.4.26.8.4,1.19.07.2.15.41.23.61s.25.63.37.94l.27.64.42.9c.09.2.18.41.28.6.17.36.36.71.54,1.06l.21.4c.26.46.52.92.79,1.37l.33.52c.18.29.36.58.56.87l.38.56c.18.27.37.53.57.8l.39.53.67.86.35.42c.34.41.68.81,1,1.2l.33.36.79.83.45.44c.24.24.49.47.74.7l.48.44c.26.24.53.47.8.7l.44.37q.62.51,1.26,1l.18.13,1.15.82.48.32.91.58.53.33.93.53.51.29,1.17.6.3.15c.49.23,1,.46,1.49.67l.45.19c.37.15.73.3,1.1.43l.57.21,1,.35.57.18,1.17.34.45.12c.54.14,1.08.27,1.63.38l.34.07,1.33.24.58.08,1.14.15.62.06c.39,0,.79.07,1.19.09l.55,0c.57,0,1.16,0,1.74,0H225c.59,0,1.18,0,1.77-.05l.57,0,1.18-.09.66-.07,1.08-.14.67-.11c.36-.05.72-.12,1.07-.19l.64-.12,1.16-.27.5-.12c.55-.15,1.09-.3,1.62-.47l.42-.14,1.17-.39.63-.24.94-.38.67-.28.86-.39.68-.33.83-.43.66-.35c.28-.15.57-.32.85-.49l.74-.44,1.16-.74.68-.48.66-.47.7-.53.59-.47.7-.58.53-.46c.24-.21.48-.42.71-.64l.46-.43.73-.71.21-.22c.58-.61,1.15-1.23,1.7-1.88l.15-.17c.25-.29.48-.59.72-.89.1-.12.2-.25.29-.38.23-.29.45-.59.66-.89.1-.13.2-.27.29-.41.22-.3.43-.61.63-.92l.25-.38c.21-.34.42-.67.62-1,.05-.07.09-.15.14-.23a39.74,39.74,0,0,0,1.94-3.79,1,1,0,0,1,0-.1c.17-.39.33-.79.49-1.18,0-.11.09-.22.13-.34L260,254c0-.13.08-.26.13-.39.13-.38.25-.77.37-1.17l.09-.33c.12-.42.24-.84.35-1.27h0A36.67,36.67,0,0,0,262,242V54a36.28,36.28,0,0,0-.52-6.12Z"/><rect class="cls-2" y="-0.3" width="262" height="262" rx="37"/><ellipse class="cls-3" cx="65.92" cy="123.23" rx="24.32" ry="44.67"/><ellipse class="cls-4" cx="65.92" cy="145.57" rx="21.06" ry="22.33"/><ellipse class="cls-3" cx="65.92" cy="123.23" rx="9.57" ry="32.45"/><ellipse class="cls-5" cx="65.92" cy="103.19" rx="7.32" ry="12.41"/><path class="cls-3" d="M98.5,90.75c-1.92,2.09-10.11-13.21-5.26-14.83S100.12,89,98.5,90.75Z"/><ellipse class="cls-3" cx="196.08" cy="123.23" rx="24.32" ry="44.67"/><ellipse class="cls-4" cx="196.08" cy="145.57" rx="21.06" ry="22.33"/><ellipse class="cls-3" cx="196.08" cy="123.23" rx="9.57" ry="32.45"/><ellipse class="cls-5" cx="196.08" cy="103.19" rx="7.32" ry="12.41"/><path class="cls-3" d="M163.5,90.75c1.92,2.09,10.11-13.21,5.26-14.83S161.88,89,163.5,90.75Z"/><path class="cls-3" d="M137.67,175.9H124.33c-2.66,0,6.67,6.67,6.67,6.67S140.33,175.9,137.67,175.9Z"/><path class="cls-3" d="M119.18,195.83a35.23,35.23,0,0,1-14.78-3.57.94.94,0,0,1-.4-1.37,1.23,1.23,0,0,1,1.56-.35c.14.07,14.14,7.22,24.75.07l.69-.47.69.47c10.64,7.17,24.61,0,24.75-.07a1.21,1.21,0,0,1,1.55.35.93.93,0,0,1-.39,1.37c-.61.32-14.88,7.63-26.6.38A22.12,22.12,0,0,1,119.18,195.83Z"/><path class="cls-4" d="M35.77-.27A37.13,37.13,0,0,0,.52,30.58,69.22,69.22,0,0,0,20.85,44.7l-4-14,12,7-6-15,14.37,6.55-5-13.88,14.13,8.5A132.32,132.32,0,0,0,35.77-.27Z"/><path class="cls-4" d="M261.48,30.58A37.13,37.13,0,0,0,226.23-.27a132.32,132.32,0,0,0-10.58,24.14l14.13-8.5-5,13.88,14.37-6.55-6,15,12-7-4,14A69.22,69.22,0,0,0,261.48,30.58Z"/><path class="cls-6" d="M37,261.7H166.34C157,250.31,144.58,243.37,131,243.37c-11.12,0-21.44,4.65-30,12.59-6.62-8-15.13-13.43-25-15.32-10.36-2-20.79.3-30.25,5.82A40.9,40.9,0,0,0,29.62,235.6c-9-3.24-18.63-3-28,0A37.14,37.14,0,0,0,37,261.7Z"/><path class="cls-6" d="M260.91,233.58a40.17,40.17,0,0,0-35.14,12.88c-9.46-5.52-19.88-7.8-30.24-5.82-12.08,2.31-22.11,10-29.14,21.06H225A37.15,37.15,0,0,0,260.91,233.58Z"/></g></svg>