<svg xmlns="http://www.w3.org/2000/svg" viewBox="0 0 262 279"><defs><style>.cls-1{fill:#dfcc00;}.cls-2{fill:#ffed00;}.cls-3{fill:#3c3c3b;}.cls-4{fill:#fff;}.cls-5{fill:#e30613;}</style></defs><g id="Layer_1" data-name="Layer 1"><path class="cls-1" d="M225,17H37A37.11,37.11,0,0,0,0,54V242q0,1.06.06,2.1c0,.21,0,.41.05.61,0,.5.08,1,.14,1.49,0,.22,0,.44.08.65.07.5.14,1,.23,1.48,0,.19.06.37.1.55.1.57.23,1.14.36,1.7a2.68,2.68,0,0,0,.07.27,36.44,36.44,0,0,0,3,8h0A37.1,37.1,0,0,0,37,279H225a37.14,37.14,0,0,0,35.91-28.14c0-.1,0-.19.07-.28.13-.56.26-1.13.36-1.7,0-.18.07-.36.1-.55.09-.49.16-1,.23-1.48,0-.21.06-.43.08-.65.06-.49.1-1,.14-1.49,0-.2,0-.4.05-.61q.06-1,.06-2.1V54A37.11,37.11,0,0,0,225,17Z"/><rect class="cls-2" width="262" height="262" rx="37"/><circle class="cls-3" cx="59.33" cy="104.67" r="22.67" transform="translate(-56.63 72.61) rotate(-45)"/><circle class="cls-4" cx="64.51" cy="95.78" r="8.89" transform="translate(-47.63 68.22) rotate(-42.23)"/><circle class="cls-3" cx="202.67" cy="104.67" r="22.67" transform="translate(-14.65 173.96) rotate(-45)"/><circle class="cls-4" cx="197.49" cy="95.78" r="8.89" transform="translate(57.66 264.97) rotate(-76.3)"/><path class="cls-5" d="M22.92,168.67A38.82,38.82,0,0,0,0,176.12V225a36.69,36.69,0,0,0,4.08,16.82,39,39,0,1,0,18.84-73.15Z"/><path class="cls-5" d="M239.08,168.67a39,39,0,1,0,18.84,73.15A36.69,36.69,0,0,0,262,225V176.12A38.82,38.82,0,0,0,239.08,168.67Z"/><path class="cls-3" d="M143.9,131.08,131.06,131h-13c-5.7,0,11.3,6.74,12.75,7.21v0l.05,0,0,0v0C132.41,137.78,149.6,131.25,143.9,131.08Z"/><path class="cls-3" d="M177.36,152.5a45.6,45.6,0,0,1-4.61,4.5c-.81.7-1.66,1.37-2.52,2s-1.76,1.26-2.65,1.88-1.84,1.17-2.81,1.68-1.94,1-2.93,1.49-2.05.85-3.09,1.22a29.48,29.48,0,0,1-3.26.87c-.55.1-1.1.23-1.67.31l-1.71.16c-.3,0-.53.06-.9.06h-.8l-1.6,0c-1.14-.08-2.29-.13-3.38-.3s-2.21-.34-3.31-.55l-1.64-.39-1.61-.49c-1.07-.35-2.12-.75-3.16-1.2a30.68,30.68,0,0,1-3-1.51,21,21,0,0,1-3-2h2.58a20.16,20.16,0,0,1-3,2,33.14,33.14,0,0,1-3,1.52c-1,.44-2.09.84-3.16,1.19a33.22,33.22,0,0,1-3.25.89c-1.1.21-2.19.43-3.31.55s-2.22.21-3.33.29c-.55,0-1.11,0-1.66,0h-1.14l-.19,0-.4,0-1.59-.15c-.56-.07-1.15-.21-1.72-.31a29.28,29.28,0,0,1-3.29-.87c-1-.38-2.09-.75-3.09-1.22s-2-.94-2.94-1.5-1.88-1.1-2.8-1.68-1.79-1.22-2.65-1.88-1.71-1.32-2.53-2a45.47,45.47,0,0,1-4.6-4.5c1.71,1.29,3.47,2.48,5.26,3.61.91.54,1.8,1.1,2.72,1.61s1.85,1,2.78,1.48,1.87.94,2.84,1.32,1.92.77,2.89,1.12,2,.62,2.94.89a26.81,26.81,0,0,0,2.93.55c.48,0,.93.14,1.44.17l1.6,0,.4,0h.28s.11,0-.08,0h.09l.77,0,1.52-.09c1-.12,2-.2,3-.4s2-.4,3-.63l1.46-.4,1.43-.46c.95-.33,1.89-.7,2.8-1.11a25.66,25.66,0,0,0,2.66-1.37,20,20,0,0,0,2.35-1.57l1.3-1,1.28,1a20,20,0,0,0,2.35,1.58,27.71,27.71,0,0,0,2.66,1.36q1.37.62,2.79,1.11c1,.33,1.93.6,2.9.87s2,.48,3,.63,2,.27,3,.39c.51,0,1.06.06,1.58.09l.8,0c.16,0,.47,0,.69,0l1.48,0c.5,0,1-.11,1.49-.17a26.25,26.25,0,0,0,3-.56c1-.27,2-.55,2.93-.88s1.95-.69,2.89-1.12,1.89-.87,2.84-1.32,1.87-1,2.78-1.48,1.81-1.07,2.72-1.62C173.89,155,175.66,153.8,177.36,152.5Z"/></g></svg>