<svg xmlns="http://www.w3.org/2000/svg" viewBox="0 0 262 279"><defs><style>.cls-1{fill:#00b2cf;}.cls-2{fill:#b0dad9;}.cls-3{fill:#343333;}.cls-4{fill:#f3a8ca;}.cls-5{fill:#fff;}.cls-6{fill:#700e00;}.cls-7{fill:#3c3c3b;}</style></defs><g id="Layer_1" data-name="Layer 1"><rect class="cls-1" y="17" width="262" height="262" rx="37"/><rect class="cls-2" width="262" height="262" rx="37"/><path class="cls-3" d="M184.48,178.44c-36.62,2-51.07,12-51.07,12s-14.45-10-51.07-12-54.2-14-54.2-14C53,230.48,133.41,224.47,133.41,224.47s80.46,6,105.27-60.05C238.68,164.42,221.09,176.43,184.48,178.44Z"/><path class="cls-4" d="M133.41,190.45s-14.45-10-51.07-12c-5-.28-9.64-.74-13.94-1.34-9.67,7-14.61,15-17.14,21.39,33.31,29.62,82.15,26,82.15,26s48.84,3.64,82.15-26c-2.53-6.43-7.47-14.36-17.14-21.39-4.3.6-8.94,1.06-13.94,1.34C147.86,180.44,133.41,190.45,133.41,190.45Z"/><path class="cls-3" d="M111.37,175.18s-10-2.09-7.39-5.3S112.66,173.09,111.37,175.18Z"/><path class="cls-3" d="M155.45,175.18s10-2.09,7.38-5.3S154.16,173.09,155.45,175.18Z"/><path class="cls-5" d="M72.46,145.27c-4.82,0-34.69-4.82-38.54-4.82S14.26,62.89,55.76,63.85,72.46,145.27,72.46,145.27Z"/><path class="cls-3" d="M58.2,64c-7.92,3.68-20,12.86-20.67,34.81-.6,20.46,3.69,34.9,7,42.87,10.35,1.43,24.72,3.57,27.94,3.57C72.46,145.27,96.26,68.07,58.2,64Z"/><path class="cls-5" d="M69.82,90.56C67.14,99.9,60,106,53.79,104.25s-9-10.77-6.32-20.11,9.85-15.46,16-13.69S72.5,81.23,69.82,90.56Z"/><path class="cls-6" d="M70.06,145.11c3.34-8,6.45-27.92,6.17-30.7C75.91,111.19,73,117.3,60.5,124s-18.31-3.85-17.67,4.18c.4,5,2.44,10.44,3.91,13.79C55.05,143.17,65.11,144.63,70.06,145.11Z"/><path class="cls-7" d="M84.45,70.63a.47.47,0,0,1-.44-.3C80.73,62.67,70.64,54.88,70.54,54.8a.48.48,0,0,1,.58-.76c.42.32,10.39,8,13.77,15.92a.47.47,0,0,1-.25.63A.41.41,0,0,1,84.45,70.63Z"/><path class="cls-5" d="M194.36,145.27c4.81,0,34.68-4.82,38.54-4.82s19.66-77.56-21.85-76.6S194.36,145.27,194.36,145.27Z"/><path class="cls-3" d="M208.61,64c7.92,3.68,20,12.86,20.67,34.81.61,20.46-3.68,34.9-7,42.87-10.35,1.43-24.73,3.57-27.94,3.57C194.36,145.27,170.55,68.07,208.61,64Z"/><path class="cls-5" d="M197,90.56c2.68,9.34,9.85,15.47,16,13.69s9-10.77,6.32-20.11-9.86-15.46-16-13.69S194.32,81.23,197,90.56Z"/><path class="cls-6" d="M196.76,145.11c-3.35-8-6.46-27.92-6.18-30.7.32-3.22,3.21,2.89,15.74,9.63s18.31-3.85,17.66,4.18c-.4,5-2.44,10.44-3.9,13.79C211.76,143.17,201.71,144.63,196.76,145.11Z"/><path class="cls-7" d="M182.37,70.63a.48.48,0,0,0,.44-.3c3.28-7.66,13.37-15.45,13.47-15.53a.48.48,0,0,0,.09-.67.47.47,0,0,0-.68-.09c-.42.32-10.38,8-13.77,15.92a.48.48,0,0,0,.26.63A.41.41,0,0,0,182.37,70.63Z"/></g></svg>